Coordinates
version=1
nRows=23
nColumns=27
inDegrees=yes

Units are S.I. units (second, meters, Newtons, ...)
If the header above contains a line with 'inDegrees', this indicates whether rotational values are in degrees (yes) or radians (no).

endheader
time	pelvis_rotation	pelvis_tilt	pelvis_list	pelvis_tx	pelvis_ty	pelvis_tz	hip_flexion_r	hip_adduction_r	hip_rotation_r	knee_angle_r	knee_rotation_r	knee_adduction_r	knee_angle_r_beta	ankle_angle_r	subtalar_angle_r	mtp_angle_r	hip_flexion_l	hip_adduction_l	hip_rotation_l	knee_angle_l	knee_rotation_l	knee_adduction_l	knee_angle_l_beta	ankle_angle_l	subtalar_angle_l	mtp_angle_l
      9.84500000	      3.97544360	      1.04361992	     -2.04149821	     -0.00857986	      0.90888951	     -1.19739239	      6.58061289	     -5.14870313	    -30.51064226	     11.50652542	      5.56006171	      8.36174421	      0.20082675	      0.42765813	      4.48437370	      0.00000000	      9.97391770	     -8.87930959	    -17.19202578	     12.44877708	      2.26259461	     -4.82346491	      0.21727215	      0.39532113	     10.37538455	      0.00000000
      9.85000000	      3.97574442	      1.02790390	     -2.02852765	     -0.00846756	      0.90892512	     -1.19736334	      6.57646674	     -5.16102104	    -30.47189160	     11.48633169	      5.58316575	      8.34483287	      0.20047431	      0.41849576	      4.44016046	      0.00000000	      9.95202777	     -8.86390973	    -17.13485204	     12.38949647	      2.28363679	     -4.78823585	      0.21623751	      0.35798671	     10.32524017	      0.00000000
      9.85500000	      3.96030397	      1.02020372	     -2.03621279	     -0.00826081	      0.90893374	     -1.19730191	      6.58208174	     -5.14628778	    -30.50055381	     11.50407417	      5.56493688	      8.35985263	      0.20078397	      0.44768265	      4.50443880	      0.00000000	      9.94960161	     -8.88935359	    -17.18900319	     12.41024006	      2.29109274	     -4.80860769	      0.21659955	      0.38068187	     10.35521283	      0.00000000
      9.86000000	      3.27687953	      0.10351699	     -2.10966318	     -0.01097389	      0.90865050	     -1.19666828	      8.22128299	     -4.85337819	    -29.08257044	     12.06239484	      5.06206027	      7.37069354	      0.21052851	      0.63594343	      4.99212642	      0.00000000	     11.24853127	     -9.23013625	    -17.34861444	     13.05146020	      2.25029820	     -4.12969287	      0.22779095	      0.61909551	     10.82692989	      0.00000000
      9.86500000	      3.95938698	      0.98565065	     -2.02359454	     -0.00798516	      0.90897342	     -1.19725767	      6.59391204	     -5.16354486	    -30.48705187	     11.50564868	      5.58607392	      8.35121177	      0.20081145	      0.45500623	      4.47065777	      0.00000000	      9.95664322	     -8.87617166	    -17.17426714	     12.38926298	      2.28893746	     -4.77914691	      0.21623343	      0.38115879	     10.37353405	      0.00000000
      9.87000000	      3.94438150	      0.97336456	     -2.03979546	     -0.00781981	      0.90897780	     -1.19715537	      6.60394910	     -5.12841701	    -30.48338450	     11.50384865	      5.56626909	      8.35166741	      0.20078004	      0.45988064	      4.49303436	      0.00000000	      9.97031948	     -8.92025687	    -17.21641628	     12.42801857	      2.30269175	     -4.80149629	      0.21690984	      0.41244218	     10.39856993	      0.00000000
      9.87500000	      3.96353202	      0.95001396	     -2.05208176	     -0.00768303	      0.90897005	     -1.19711533	      6.64007058	     -5.12420390	    -30.55761521	     11.56115096	      5.53682851	      8.37489535	      0.20178015	      0.51888502	      4.59190392	      0.00000000	     10.00426872	     -8.93554237	    -17.19536710	     12.46342593	      2.29572790	     -4.77720419	      0.21752782	      0.45306122	     10.42919731	      0.00000000
      9.88000000	      3.97577223	      0.96845798	     -2.01975082	     -0.00751467	      0.90898734	     -1.19717106	      6.58434734	     -5.17355833	    -30.51922727	     11.53308741	      5.59508940	      8.36332229	      0.20129035	      0.49923780	      4.49326033	      0.00000000	      9.96211601	     -8.87910519	    -17.16896731	     12.42398076	      2.27683189	     -4.77691290	      0.21683937	      0.42165821	     10.40043745	      0.00000000
      9.88500000	      3.95073629	      0.95088052	     -2.05614732	     -0.00736722	      0.90898013	     -1.19704113	      6.60967763	     -5.11124099	    -30.50900827	     11.53745452	      5.56533609	      8.36645237	      0.20136657	      0.51016604	      4.51099283	      0.00000000	     10.00461975	     -8.95658676	    -17.25489818	     12.51177915	      2.28577482	     -4.80154716	      0.21837174	      0.48573659	     10.48772720	      0.00000000
      9.89000000	      3.31271672	      0.07545059	     -2.18155231	     -0.00992407	      0.90867980	     -1.19636556	      8.17262358	     -4.75764222	    -29.18273440	     12.06267676	      5.04662021	      7.41399357	      0.21053343	      0.69306346	      5.01388953	      0.00000000	     11.28638103	     -9.35297998	    -17.43355384	     13.20325217	      2.23828609	     -4.18222513	      0.23044022	      0.77742065	     10.99546131	      0.00000000
      9.89500000	      3.94391705	      0.95128140	     -2.04589055	     -0.00705847	      0.90898167	     -1.19699756	      6.61846787	     -5.11512480	    -30.53873496	     11.58874509	      5.52395858	      8.37029235	      0.20226176	      0.57315317	      4.60842819	      0.00000000	      9.97698830	     -8.95454324	    -17.24747695	     12.50678615	      2.30207633	     -4.80840629	      0.21828460	      0.50441044	     10.44154938	      0.00000000
      9.90000000	      3.95247671	      0.96289789	     -2.03739719	     -0.00687848	      0.90901224	     -1.19701318	      6.57116899	     -5.12873179	    -30.51214609	     11.55296208	      5.56171267	      8.36588673	      0.20163723	      0.53620763	      4.52230410	      0.00000000	      9.93720869	     -8.93515314	    -17.23219309	     12.46334832	      2.29639461	     -4.80428197	      0.21752646	      0.47662807	     10.42685221	      0.00000000
      9.90500000	      3.97105436	      0.96351734	     -2.06198551	     -0.00671524	      0.90901314	     -1.19697225	      6.55116670	     -5.09865394	    -30.53281480	     11.54101860	      5.55652743	      8.36589126	      0.20142877	      0.53858070	      4.51854133	      0.00000000	      9.95960307	     -8.96784642	    -17.24469156	     12.52386060	      2.28793834	     -4.81794095	      0.21858260	      0.52155621	     10.48089467	      0.00000000
      9.91000000	      3.97561566	      0.98083009	     -2.05107932	     -0.00653156	      0.90902599	     -1.19697640	      6.52928859	     -5.11110186	    -30.55931128	     11.55668839	      5.54698984	      8.37701139	      0.20170226	      0.55249607	      4.54230798	      0.00000000	      9.91227230	     -8.95086220	    -17.22877046	     12.48604256	      2.29215684	     -4.80554256	      0.21792255	      0.51427059	     10.46612134	      0.00000000
      9.91500000	      3.97109374	      0.95057478	     -2.06331254	     -0.00641490	      0.90901936	     -1.19694054	      6.57545494	     -5.09869751	    -30.58513217	     11.59795862	      5.52069440	      8.37819309	      0.20242256	      0.60266618	      4.60440889	      0.00000000	      9.96435545	     -8.98204546	    -17.26831723	     12.55016776	      2.28898065	     -4.82214740	      0.21904175	      0.55945412	     10.51081434	      0.00000000
      9.92000000	      3.35732217	      0.08884891	     -2.18200723	     -0.00903270	      0.90872003	     -1.19628143	      8.11955334	     -4.75681357	    -29.26161391	     12.11421599	      5.00799517	      7.41327127	      0.21143296	      0.78057463	      5.10822812	      0.00000000	     11.23943631	     -9.35787176	    -17.39239132	     13.23888396	      2.23673774	     -4.18396284	      0.23106211	      0.83337734	     11.00073868	      0.00000000
      9.92500000	      3.98558021	      0.97390824	     -2.06519471	     -0.00609526	      0.90906116	     -1.19690725	      6.49421205	     -5.07940250	    -30.54008101	     11.52381854	      5.54113825	      8.35057218	      0.20112858	      0.56301962	      4.55076385	      0.00000000	      9.90743947	     -8.98717332	    -17.23417417	     12.52186693	      2.30270797	     -4.79951555	      0.21854781	      0.54789843	     10.50061458	      0.00000000
      9.93000000	      4.01593189	      0.94507505	     -2.04360054	     -0.00598397	      0.90907088	     -1.19696250	      6.53789757	     -5.12388352	    -30.61286750	     11.59489191	      5.52552364	      8.36845847	      0.20236904	      0.61742312	      4.60825975	      0.00000000	      9.93907275	     -8.94241250	    -17.19281558	     12.52477870	      2.28568581	     -4.80826161	      0.21859863	      0.55382615	     10.47313960	      0.00000000
      9.93500000	      4.03150587	      0.94943554	     -2.05208615	     -0.00585204	      0.90907151	     -1.19694578	      6.51125952	     -5.11013586	    -30.59263024	     11.56955843	      5.53713011	      8.35448561	      0.20192689	      0.61196894	      4.57579029	      0.00000000	      9.93889210	     -8.94953924	    -17.18577225	     12.54451740	      2.27566854	     -4.80870354	      0.21894313	      0.57285187	     10.50548861	      0.00000000
      9.94000000	      4.05709617	      0.96391693	     -2.06582732	     -0.00568600	      0.90909300	     -1.19694784	      6.49016686	     -5.09321031	    -30.65414736	     11.57992078	      5.50729947	      8.37043926	      0.20210774	      0.63225531	      4.63294921	      0.00000000	      9.92599498	     -8.96133021	    -17.15884823	     12.56015844	      2.27191795	     -4.78111299	      0.21921612	      0.59779774	     10.55381419	      0.00000000
      9.94500000	      4.06991947	      0.97700679	     -2.04762955	     -0.00547875	      0.90911806	     -1.19697958	      6.43331982	     -5.11847167	    -30.62631197	     11.53770011	      5.55087486	      8.35648421	      0.20137086	      0.61186650	      4.55731080	      0.00000000	      9.88637101	     -8.93461377	    -17.14592959	     12.53289611	      2.27013597	     -4.79560077	      0.21874030	      0.57803390	     10.52503564	      0.00000000
      9.95000000	      4.06672585	      0.93996687	     -2.05145700	     -0.00540298	      0.90913040	     -1.19698001	      6.47242471	     -5.10520485	    -30.60645576	     11.54117842	      5.53591015	      8.36523056	      0.20143156	      0.60780014	      4.52183040	      0.00000000	      9.92557871	     -8.93495900	    -17.12446835	     12.54089329	      2.25996146	     -4.76340921	      0.21887988	      0.58837907	     10.53967708	      0.00000000
      9.95500000	      3.42511218	      0.05656494	     -2.22713151	     -0.00801579	      0.90882701	     -1.19621672	      8.05787820	     -4.68076343	    -29.27948796	     12.06168974	      4.97899438	      7.40042354	      0.21051620	      0.78453307	      5.04113951	      0.00000000	     11.25899663	     -9.40774556	    -17.34781835	     13.32230314	      2.21642483	     -4.17496308	      0.23251805	      0.93269255	     11.10778767	      0.00000000
